<svg width="1140" height="120" viewBox="0 0 1140 120" fill="none" xmlns="http://www.w3.org/2000/svg">
<path d="M670.048 48.5283C670.048 50.1859 668.67 51.5422 666.985 51.5422C665.3 51.5422 663.922 50.1859 663.922 48.5283C663.922 46.8706 665.224 45.5143 666.985 45.5143C668.746 45.552 670.048 46.9083 670.048 48.5283ZM657.489 54.5561C657.489 54.8198 657.489 55.3096 657.489 55.3096C657.489 55.3096 656.034 53.4636 652.932 53.4636C647.84 53.4636 643.819 57.3063 643.819 62.5807C643.819 67.855 647.763 71.6978 652.932 71.6978C656.072 71.6978 657.489 69.8141 657.489 69.8141V70.6052C657.489 70.982 657.757 71.2457 658.14 71.2457H661.931V53.9156C661.931 53.9156 658.446 53.9156 658.14 53.9156C657.757 53.9156 657.489 54.2547 657.489 54.5561ZM657.489 65.6699C656.8 66.6871 655.383 67.5536 653.698 67.5536C650.712 67.5536 648.414 65.7076 648.414 62.5807C648.414 59.4537 650.712 57.6077 653.698 57.6077C655.345 57.6077 656.838 58.5119 657.489 59.4914V65.6699ZM664.764 53.9156H669.282V71.2457H664.764V53.9156ZM731.963 53.4636C728.862 53.4636 727.407 55.3096 727.407 55.3096V45.5897H722.889V71.2834C722.889 71.2834 726.373 71.2834 726.679 71.2834C727.062 71.2834 727.33 70.9443 727.33 70.6429V69.8518C727.33 69.8518 728.785 71.7355 731.887 71.7355C736.979 71.7355 741 67.855 741 62.6183C741.038 57.344 737.018 53.4636 731.963 53.4636ZM731.236 67.516C729.513 67.516 728.134 66.6495 727.445 65.6323V59.4537C728.134 58.5496 729.666 57.57 731.236 57.57C734.222 57.57 736.52 59.4161 736.52 62.543C736.52 65.6699 734.222 67.516 731.236 67.516ZM720.591 60.9607V71.2834H716.073V61.4881C716.073 58.6249 715.154 57.457 712.588 57.457C711.21 57.457 709.832 58.1351 708.951 59.1523V71.2457H704.433V53.9156H707.994C708.377 53.9156 708.645 54.2547 708.645 54.5561V55.3096C709.946 53.9533 711.708 53.4636 713.431 53.4636C715.384 53.4636 717.03 54.0287 718.37 55.1212C719.978 56.4021 720.591 58.0598 720.591 60.9607ZM693.52 53.4636C690.419 53.4636 688.963 55.3096 688.963 55.3096V45.5897H684.445V71.2834C684.445 71.2834 687.93 71.2834 688.236 71.2834C688.619 71.2834 688.887 70.9443 688.887 70.6429V69.8518C688.887 69.8518 690.342 71.7355 693.443 71.7355C698.536 71.7355 702.556 67.855 702.556 62.6183C702.633 57.344 698.651 53.4636 693.52 53.4636ZM692.792 67.516C691.069 67.516 689.691 66.6495 689.002 65.6323V59.4537C689.691 58.5496 691.223 57.57 692.792 57.57C695.779 57.57 698.077 59.4161 698.077 62.543C698.077 65.6699 695.779 67.516 692.792 67.516ZM680.578 53.4636C681.956 53.4636 682.646 53.6896 682.646 53.6896V57.7961C682.646 57.7961 678.893 56.5528 676.557 59.19V71.321H672.039V53.9156C672.039 53.9156 675.524 53.9156 675.83 53.9156C676.213 53.9156 676.481 54.2547 676.481 54.5561V55.3096C677.362 54.3301 679.2 53.4636 680.578 53.4636ZM633.864 69.7011C633.634 69.136 633.405 68.5332 633.175 68.0434C632.792 67.2146 632.409 66.4234 632.103 65.7076L632.064 65.6699C628.848 58.7379 625.364 51.7305 621.688 44.8362L621.535 44.5725C621.152 43.8943 620.769 43.1409 620.424 42.3874C619.965 41.5586 619.505 40.6921 618.739 39.8632C617.246 38.0172 615.102 37 612.804 37C610.469 37 608.363 38.0172 606.793 39.7502C606.104 40.579 605.568 41.4455 605.108 42.2744C604.725 43.0278 604.342 43.7437 603.998 44.4595L603.845 44.7232C600.245 51.6552 596.723 58.6626 593.468 65.5569L593.43 65.6323C593.085 66.3857 592.74 67.1392 592.358 67.9681C592.128 68.4578 591.898 69.0229 591.668 69.6257C591.056 71.321 590.864 72.941 591.094 74.5987C591.592 78.0647 593.966 80.9656 597.182 82.2465C598.407 82.7363 599.671 83 600.973 83C601.356 83 601.815 82.9623 602.198 82.9246C603.73 82.7363 605.338 82.2465 606.87 81.3423C608.784 80.2875 610.622 78.7428 612.69 76.5577C614.757 78.7805 616.633 80.2875 618.51 81.3423C620.041 82.2088 621.649 82.7363 623.181 82.9246C623.564 82.9623 624.023 83 624.406 83C625.708 83 627.048 82.774 628.197 82.2465C631.49 80.9656 633.787 77.9894 634.285 74.5987C634.668 73.0164 634.477 71.3964 633.864 69.7011ZM612.728 72.0745C610.201 68.9476 608.554 65.9713 607.98 63.4848C607.75 62.43 607.712 61.4881 607.827 60.6593C607.903 59.9058 608.21 59.2654 608.593 58.7379C609.473 57.4947 610.967 56.7035 612.728 56.7035C614.489 56.7035 616.021 57.457 616.863 58.7379C617.246 59.303 617.514 59.9435 617.629 60.6593C617.782 61.4881 617.706 62.4676 617.476 63.4848C616.902 65.9713 615.255 68.9099 612.728 72.0745ZM631.413 74.2596C631.069 76.6708 629.461 78.7428 627.163 79.647C626.053 80.0991 624.828 80.2498 623.602 80.0991C622.415 79.9484 621.267 79.6093 620.041 78.8935C618.357 77.9893 616.672 76.5577 614.681 74.4103C617.782 70.6806 619.658 67.2523 620.348 64.2007C620.692 62.769 620.731 61.4881 620.577 60.2826C620.386 59.1147 619.965 58.0598 619.314 57.1556C617.859 55.0835 615.408 53.878 612.69 53.878C609.971 53.878 607.52 55.1212 606.065 57.1556C605.414 58.0598 604.993 59.1523 604.802 60.2826C604.61 61.4881 604.649 62.8067 605.032 64.2007C605.721 67.2523 607.674 70.7183 610.699 74.448C608.784 76.5577 607.061 77.9894 605.338 78.9312C604.113 79.6093 602.964 79.9861 601.777 80.1368C600.513 80.2875 599.288 80.0991 598.216 79.6847C595.919 78.7805 594.272 76.6708 593.966 74.2973C593.813 73.1294 593.927 71.9992 594.387 70.7183C594.54 70.2662 594.77 69.8141 595 69.249C595.344 68.4955 595.689 67.742 596.072 66.9509L596.11 66.8755C599.326 60.0188 602.811 52.9738 606.41 46.1548L606.563 45.8911C606.946 45.2129 607.329 44.4595 607.674 43.7813C608.056 43.0278 608.478 42.3497 608.975 41.7469C609.971 40.6544 611.273 40.0516 612.728 40.0516C614.183 40.0516 615.485 40.6544 616.48 41.7469C616.978 42.3497 617.399 43.0278 617.782 43.7813C618.165 44.4595 618.548 45.2129 618.893 45.8911L619.046 46.1548C622.607 53.0115 626.091 60.0565 629.308 66.9132V66.9509C629.69 67.7043 629.997 68.5332 630.38 69.249C630.609 69.8141 630.839 70.2662 630.992 70.7183C631.452 71.8862 631.605 73.0541 631.413 74.2596Z" fill="#C6C6C6"/>
<path d="M812.825 72.266C806.314 72.266 801.037 66.9865 801.037 60.4743C801.037 53.9617 806.314 48.6872 812.825 48.6872C815.12 48.6872 817.262 49.3417 819.072 50.4762L812.825 60.4743L824.586 53.683C823.308 51.647 821.476 49.8926 819.259 48.5614C816.439 46.873 812.517 45.8281 808.179 45.8281C801.991 45.8281 796.563 48.0767 793.535 51.4439C791.294 53.9331 789.959 57.066 789.959 60.4741C789.959 63.8846 791.294 67.0198 793.535 69.5107C796.57 72.8822 801.918 75.1176 808.004 75.1176C814.088 75.1176 819.435 72.8805 822.472 69.5107C822.638 69.3252 822.799 69.1379 822.951 68.9436L822.493 67.2246C820.359 70.2704 816.824 72.266 812.825 72.266Z" fill="#C6C6C6"/>
<path d="M851.819 74.4085L846.883 55.9932C846.09 53.0173 843.38 50.8301 840.154 50.8301C839.317 50.8301 838.515 50.9796 837.771 51.2502L827.144 55.1146H838.074L839.942 62.09C838.13 60.5307 835.77 59.5819 833.187 59.5819C828.056 59.5819 823.902 63.0201 823.902 67.2612C823.902 71.5027 828.056 74.9459 833.187 74.9459C836.88 74.9459 840.147 73.1377 842.161 70.3596L843.245 74.4085H851.819ZM836.761 71.5482C834.394 71.5482 832.476 69.6314 832.476 67.2612C832.476 64.8945 834.394 62.976 836.761 62.976C839.128 62.976 841.048 64.8945 841.048 67.2612C841.048 69.6314 839.128 71.5482 836.761 71.5482Z" fill="#C6C6C6"/>
<path d="M871.946 50.833C871.299 50.833 870.686 50.9762 870.14 51.2326L863.316 54.4126C862.978 52.3813 861.214 50.833 859.085 50.833C858.441 50.833 857.827 50.9762 857.274 51.2326L848.943 55.1144H854.8V74.4085H863.374V57.2609C863.374 56.0777 864.332 55.1146 865.518 55.1146C866.698 55.1146 867.663 56.0777 867.663 57.2609V74.4085H876.233V55.1144C876.233 52.7482 874.313 50.8332 871.946 50.8332" fill="#C6C6C6"/>
<path d="M925.715 50.833C925.065 50.833 924.449 50.9762 923.894 51.2326L917.078 54.4126C916.742 52.3813 914.977 50.833 912.848 50.833C912.204 50.833 911.59 50.9762 911.035 51.2326L902.708 55.1144H908.563V74.4085H917.135V57.2609C917.135 56.0777 918.095 55.1146 919.282 55.1146C920.465 55.1146 921.422 56.0777 921.422 57.2609V74.4085H930V55.1144C930 52.7482 928.078 50.8332 925.715 50.8332" fill="#C6C6C6"/>
<path d="M904.094 62.9756C904.094 69.6819 898.659 75.1173 891.955 75.1173C885.245 75.1173 879.806 69.6819 879.806 62.9756C879.806 56.271 885.245 50.833 891.955 50.833C898.659 50.833 904.094 56.2711 904.094 62.9756ZM892.457 54.5182C892.075 53.0894 890.607 52.2413 889.178 52.6254C887.752 53.0078 886.899 54.4774 887.283 55.906L891.447 71.4324C891.832 72.8626 893.297 73.7099 894.726 73.3317C896.154 72.9449 897.003 71.4762 896.62 70.0478L892.457 54.5182Z" fill="#C6C6C6"/>
<path d="M1051.78 16.291H1054.5C1067.72 17.0365 1077.16 22.0568 1084.15 29.0924C1091.14 36.1281 1096.31 45.4075 1097 58.6845V61.3149C1096.33 74.8042 1091.07 83.7071 1084.15 90.9509C1076.88 97.8315 1067.94 103.045 1054.45 103.708H1051.78C1038.55 102.961 1029.12 97.9428 1022.12 90.9068C1015.13 83.8711 1009.96 74.5919 1009.27 61.3149V58.6845C1009.31 58.6749 1009.32 58.6479 1009.31 58.5968C1009.98 45.3705 1015.17 35.9946 1022.12 29.0486C1029.11 22.0702 1038.63 17.0141 1051.78 16.291ZM1043.18 22.5602C1040.57 23.2577 1038.23 24.1435 1036.12 25.1905C1029.67 28.3773 1024.35 32.9367 1020.63 38.7809C1017 44.4854 1013.86 51.8237 1014.32 61.4463C1014.6 67.5128 1015.99 72.6158 1018.18 76.9657C1022.5 85.5546 1029.07 91.8831 1038.18 95.7295C1042.68 97.6315 1048.26 98.9657 1054.54 98.6666C1060.56 98.3799 1065.79 97.0262 1070.11 94.8526C1078.59 90.5923 1085.27 84.019 1088.97 74.9492C1090.85 70.3612 1092.26 65.0611 1091.96 58.6405C1091.38 46.4778 1086.43 38.2309 1079.89 31.9419C1076.66 28.8301 1072.77 26.1831 1068.18 24.2699C1063.73 22.4137 1057.94 21.0373 1051.73 21.3326C1048.68 21.4778 1045.8 21.8574 1043.18 22.5602Z" fill="#C6C6C6"/>
<path d="M1049.1 48.645C1050.49 49.5648 1051.91 50.4531 1053.22 51.4508C1050.26 53.3108 1047.35 55.2293 1044.41 57.1061C1044.85 57.4481 1045.36 57.7286 1045.81 58.0706C1048.78 56.189 1051.75 54.3085 1054.71 52.4152C1056.04 53.2365 1057.35 54.0783 1058.58 55.0019C1055.61 56.8744 1052.74 58.846 1049.8 60.7448C1050.24 61.0988 1050.77 61.3542 1051.25 61.6655C1054.29 59.8068 1057.25 57.8725 1060.24 55.9665V49.741H1066.82V62.1479C1068.68 62.25 1070.73 62.1625 1072.66 62.1914V68.0224H1060.24V62.1037C1056.59 64.3183 1052.86 66.8228 1049.19 69.162C1045.37 66.6825 1041.68 64.0639 1037.87 61.5778C1036.77 65.0781 1034.14 67.7112 1029.8 68.0224C1027.09 68.2159 1024.01 67.8778 1020.89 68.0224V49.741C1024.79 49.9992 1029.08 49.2199 1032.17 50.1794C1034.9 51.0279 1036.84 53.2078 1037.74 55.9224C1041.56 53.5265 1045.31 51.0697 1049.1 48.645ZM1027.17 55.6156V62.1916C1028.73 62.1993 1029.93 62.2903 1030.85 61.578C1032.23 60.5185 1032.51 57.8919 1031.29 56.4924C1030.48 55.5586 1029.11 55.3625 1027.21 55.4841C1027.16 55.4915 1027.16 55.5535 1027.17 55.6156ZM1074.37 49.741H1080.95V62.1916H1086.74V68.0226H1074.32V49.8726C1074.32 49.8104 1074.31 49.7484 1074.37 49.741Z" fill="#C6C6C6"/>
<path d="M280.972 27.5628L269.339 35.0798L280.972 42.5967L269.339 50.1136L257.705 42.534L269.339 35.0171L257.705 27.5628L269.339 20.0459L280.972 27.5628ZM269.277 52.494L280.91 44.9771L292.543 52.494L280.91 60.0109L269.277 52.494ZM280.972 42.534L292.605 35.0171L280.972 27.5628L292.543 20.0459L304.176 27.5628L292.543 35.0798L304.176 42.5967L292.543 50.1136L280.972 42.534Z" fill="#C6C6C6"/>
<path d="M214.975 71.7307H223.479C228.906 71.7307 233.381 74.8637 233.381 82.0247V83.5352C233.381 90.7522 229.185 93.9971 223.647 93.9971H214.975V71.7307ZM219.73 75.7588V89.9131H223.367C226.444 89.9131 228.514 87.899 228.514 83.4234V82.2485C228.514 77.7728 226.332 75.7588 223.199 75.7588H219.73ZM235.899 75.9826H239.703L240.319 80.1785C241.046 77.3253 242.892 75.8147 246.249 75.8147H247.424V80.6261H245.466C241.605 80.6261 240.654 81.9688 240.654 85.7731V94.053H235.955V75.9826H235.899ZM248.375 85.3815V84.8779C248.375 78.8358 252.235 75.535 257.494 75.535C262.865 75.535 266.613 78.8358 266.613 84.8779V85.3815C266.613 91.3117 262.977 94.5006 257.494 94.5006C251.675 94.4447 248.375 91.3117 248.375 85.3815ZM261.802 85.3255V84.8779C261.802 81.5212 260.123 79.5071 257.438 79.5071C254.808 79.5071 253.074 81.3534 253.074 84.8779V85.3255C253.074 88.5704 254.753 90.4166 257.438 90.4166C260.123 90.3606 261.802 88.5704 261.802 85.3255ZM269.075 75.9826H272.991L273.438 79.3953C274.389 77.1015 276.404 75.535 279.369 75.535C283.956 75.535 286.977 78.8358 286.977 84.9339V85.4374C286.977 91.3676 283.621 94.5006 279.369 94.5006C276.515 94.5006 274.557 93.2139 273.606 91.1439V100.263H269.019L269.075 75.9826ZM282.222 85.3255V84.9339C282.222 81.3534 280.376 79.5631 277.914 79.5631C275.285 79.5631 273.55 81.5771 273.55 84.9339V85.2696C273.55 88.4585 275.229 90.4725 277.858 90.4725C280.543 90.4166 282.222 88.6823 282.222 85.3255ZM293.915 90.6963L293.523 93.9971H289.495V69.9404H294.082V79.1715C295.089 76.8218 297.103 75.535 299.957 75.535C304.264 75.5909 307.453 78.5561 307.453 84.5423V85.1017C307.453 91.0879 304.432 94.5006 299.845 94.5006C296.824 94.4447 294.866 93.046 293.915 90.6963ZM302.642 85.1017V84.6542C302.642 81.3534 300.852 79.5071 298.334 79.5071C295.761 79.5071 293.97 81.5771 293.97 84.7101V85.1017C293.97 88.4585 295.705 90.4166 298.278 90.4166C301.02 90.4166 302.642 88.6823 302.642 85.1017ZM309.467 85.3815V84.8779C309.467 78.8358 313.328 75.535 318.587 75.535C323.957 75.535 327.706 78.8358 327.706 84.8779V85.3815C327.706 91.3117 324.013 94.5006 318.587 94.5006C312.768 94.4447 309.467 91.3117 309.467 85.3815ZM322.95 85.3255V84.8779C322.95 81.5212 321.272 79.5071 318.587 79.5071C315.957 79.5071 314.223 81.3534 314.223 84.8779V85.3255C314.223 88.5704 315.901 90.4166 318.587 90.4166C321.272 90.3606 322.95 88.5704 322.95 85.3255ZM333.86 84.6542L327.538 75.9826H332.965L336.601 81.4093L340.294 75.9826H345.664L339.231 84.5982L346 93.9971H340.685L336.545 88.0109L332.517 93.9971H326.978L333.86 84.6542Z" fill="#C6C6C6"/>
<path d="M493.485 28.0413C497.214 26.2099 499.061 26.4503 499.103 28.3066C499.153 30.718 498.796 33.9248 498.539 36.2452C497.156 48.8566 494.844 59.1619 494.67 72.1105C500.76 56.3427 505.865 45.3837 512.444 31.8864C514.533 27.5856 515.867 28.3894 517.582 27.627C524.261 24.6522 524.51 26.4752 523.64 30.1131C520.4 43.5872 512.104 86.0113 510.837 92.5438C510.472 94.4339 508.417 93.6326 507.887 92.8935C505.509 89.6037 502.824 89.5523 503.122 87.3646C504.614 76.4734 509.983 49.1475 511.384 42.7087C504.249 57.3363 496.849 75.6224 493.045 85.9907C492.241 88.1924 490.775 88.0309 489.863 86.42C488.579 84.157 486.085 83.0017 485.67 80.3276C484.369 71.8256 487.162 55.6202 487.551 45.3679C483.665 56.5673 477.143 78.3106 474.284 88.1343C473.108 92.199 469.18 91.5359 470.224 87.5743C474.566 71.0879 483.922 41.9298 487.966 31.4472C488.919 28.9776 491.413 29.0605 493.485 28.0413Z" fill="#C6C6C6"/>
<path d="M469.802 26.0195C468.542 25.713 464.888 27.6852 462.642 28.0746C461.929 28.1989 461.25 28.9529 461.01 29.4917C457.413 37.7535 454.19 45.6291 451.397 52.8036C447.825 53.4135 443.649 54.2165 438.975 55.2663C442.323 46.6789 445.704 38.2091 449.002 30.0633C450.626 26.0525 446.351 25.6714 444.693 29.7319C442.539 35.0106 438.503 44.9007 434.036 56.4282C430.755 57.2328 427.275 58.1525 423.637 59.2034C420.993 59.9666 420.886 60.6709 422.029 62.2562C422.659 63.1389 423.96 63.0499 424.556 63.6789C426.098 65.309 427.034 67.2588 429.793 67.5538C427.332 74.1375 424.871 80.9268 422.642 87.4641C421.242 91.5676 425.228 92.407 426.761 88.0647C429.23 81.065 431.832 73.9807 434.509 66.9173C436.738 66.3993 442.132 65.2374 447.113 64.1569C443.16 74.9908 440.558 83.2186 439.572 87.2236C439.39 87.9942 439.696 88.4218 439.862 88.7359C441.196 90.6774 442.464 90.757 444.179 93.1576C444.643 93.8122 446.201 94.1652 446.731 92.5535C450.394 81.4899 454.165 71.1093 457.678 61.8033C459.136 61.4843 461.763 60.8504 463.371 58.4514C466.23 54.1936 467.05 55.0572 467.738 53.7628C468.6 52.1378 468.028 50.6122 464.979 50.9891C464.979 50.9891 463.827 51.0711 461.697 51.3139C465.078 42.6089 468.036 35.2254 470.166 29.5989C470.896 27.6935 470.987 26.3013 469.802 26.0195Z" fill="#C6C6C6"/>
<path d="M464.813 82.4803C465.601 84.4699 468.062 83.8674 467.125 81.466C466.172 79.0197 463.802 71.6553 463.181 69.2828C462.336 66.0859 465.998 66.9602 464.142 69.0502C462.551 70.8474 461.49 71.5675 458.549 74.985C455.706 78.2839 456.477 82.5649 459.518 83.5104C462.949 84.5776 465.973 80.7973 467.846 78.0239C469.661 75.3382 467.904 73.7629 466.073 75.3506C464.896 76.3715 463.537 77.9392 462.161 78.7845C461.043 79.4648 460.164 78.734 461.656 76.6806C463.388 74.3032 465.327 72.3112 466.769 70.0645C469.711 65.4862 463.893 62.847 461.391 65.8209C460.048 67.4062 460.388 68.9625 460.753 70.2982C461.341 72.4378 463.529 79.2677 464.813 82.4803Z" fill="#C6C6C6"/>
<path d="M152 83.5072V80.3188H148.04V75.3618L147.907 75.4028L144.188 76.5406L144.115 76.5629V80.3188H138.245V78.2267C138.245 77.2524 138.463 76.5068 138.892 76.0096C139.319 75.5183 139.929 75.2686 140.706 75.2686C141.265 75.2686 141.844 75.4004 142.427 75.6601L142.573 75.7253V72.3673L142.504 72.3421C141.961 72.1468 141.221 72.0483 140.305 72.0483C139.15 72.0483 138.101 72.2996 137.186 72.7977C136.27 73.2964 135.55 74.0085 135.045 74.9139C134.542 75.8182 134.287 76.8626 134.287 78.0184V80.3188H131.53V83.5072H134.287V96.9396H138.245V83.5072H144.115V92.0434C144.115 95.5589 145.773 97.3406 149.043 97.3406C149.581 97.3406 150.146 97.2774 150.724 97.154C151.312 97.0275 151.712 96.901 151.948 96.766L152 96.7353V93.5172L151.839 93.6238C151.624 93.7672 151.357 93.884 151.043 93.9708C150.728 94.0594 150.465 94.1039 150.261 94.1039C149.495 94.1039 148.928 93.8974 148.577 93.49C148.221 93.079 148.04 92.3599 148.04 91.3543V83.5072H152ZM122.691 94.1042C121.255 94.1042 120.122 93.6278 119.324 92.6895C118.521 91.7464 118.114 90.4019 118.114 88.6936C118.114 86.9312 118.521 85.5518 119.324 84.5921C120.123 83.6386 121.245 83.1548 122.659 83.1548C124.032 83.1548 125.124 83.6169 125.906 84.5291C126.693 85.446 127.092 86.8144 127.092 88.5974C127.092 90.4023 126.717 91.7887 125.977 92.716C125.242 93.6366 124.137 94.1042 122.691 94.1042ZM122.868 79.9183C120.127 79.9183 117.95 80.7214 116.398 82.3053C114.847 83.8894 114.06 86.0815 114.06 88.8214C114.06 91.4237 114.828 93.5169 116.342 95.0418C117.857 96.5675 119.917 97.3402 122.467 97.3402C125.124 97.3402 127.257 96.526 128.809 94.9202C130.36 93.3158 131.146 91.1446 131.146 88.4687C131.146 85.8257 130.408 83.7169 128.953 82.202C127.497 80.6865 125.449 79.9183 122.868 79.9183ZM107.679 79.9182C105.815 79.9182 104.273 80.3951 103.094 81.3353C101.909 82.2811 101.308 83.5217 101.308 85.0228C101.308 85.803 101.438 86.4962 101.693 87.084C101.95 87.6739 102.348 88.193 102.876 88.6289C103.4 89.0612 104.209 89.5141 105.282 89.9747C106.183 90.3456 106.855 90.6596 107.283 90.9069C107.7 91.1491 107.996 91.3929 108.164 91.6301C108.326 91.8623 108.409 92.1799 108.409 92.5724C108.409 93.6889 107.573 94.2321 105.852 94.2321C105.214 94.2321 104.486 94.0991 103.688 93.8362C102.89 93.5738 102.144 93.1965 101.472 92.7127L101.308 92.5949V96.4054L101.368 96.4334C101.929 96.6919 102.634 96.9098 103.467 97.0815C104.297 97.2531 105.052 97.3406 105.708 97.3406C107.731 97.3406 109.36 96.8614 110.548 95.9156C111.745 94.9633 112.351 93.6935 112.351 92.1403C112.351 91.02 112.025 90.0591 111.381 89.2844C110.742 88.5157 109.634 87.8103 108.087 87.1866C106.854 86.692 106.065 86.2814 105.739 85.9663C105.425 85.6618 105.266 85.2312 105.266 84.686C105.266 84.2026 105.463 83.8155 105.867 83.5017C106.274 83.1865 106.84 83.0262 107.551 83.0262C108.211 83.0262 108.885 83.1304 109.556 83.3345C110.227 83.5386 110.816 83.812 111.307 84.1465L111.469 84.257V80.6423L111.407 80.6156C110.953 80.4211 110.355 80.2547 109.629 80.1197C108.905 79.986 108.249 79.9182 107.679 79.9182ZM90.9899 94.1042C89.5537 94.1042 88.4207 93.6278 87.6227 92.6895C86.8195 91.7464 86.4132 90.4023 86.4132 88.6936C86.4132 86.9312 86.8199 85.5518 87.6236 84.5921C88.4216 83.6386 89.5432 83.1548 90.9581 83.1548C92.33 83.1548 93.4224 83.6169 94.2051 84.5291C94.9917 85.446 95.3907 86.8144 95.3907 88.5974C95.3907 90.4023 95.0151 91.7887 94.275 92.716C93.5402 93.6366 92.4355 94.1042 90.9899 94.1042ZM91.1666 79.9183C88.4251 79.9183 86.2482 80.7214 84.6969 82.3053C83.1458 83.8894 82.3588 86.0815 82.3588 88.8214C82.3588 91.4248 83.127 93.5169 84.6412 95.0418C86.1554 96.5675 88.216 97.3402 90.7656 97.3402C93.4218 97.3402 95.556 96.526 97.1075 94.9202C98.6583 93.3158 99.4447 91.1446 99.4447 88.4687C99.4447 85.8257 98.707 83.7169 97.2515 82.202C95.7952 80.6865 93.7478 79.9183 91.1666 79.9183ZM76.3508 83.197V80.3188H72.441V96.9392H76.3508V88.4373C76.3508 86.9914 76.6785 85.8039 77.3252 84.9068C77.9638 84.0204 78.8149 83.5712 79.8538 83.5712C80.2059 83.5712 80.6012 83.6293 81.0293 83.7442C81.4531 83.8584 81.76 83.9823 81.9411 84.1127L82.1053 84.2318V80.2903L82.0419 80.2631C81.6778 80.1083 81.1628 80.0303 80.5111 80.0303C79.5287 80.0303 78.6494 80.3459 77.8963 80.9675C77.2353 81.5138 76.7574 82.2629 76.3922 83.197H76.3508ZM65.4396 79.9182C63.6461 79.9182 62.0462 80.303 60.6852 81.0611C59.3216 81.8209 58.2671 82.9059 57.5496 84.2855C56.8353 85.6618 56.4727 87.2694 56.4727 89.0621C56.4727 90.6324 56.8243 92.0736 57.5193 93.3436C58.2147 94.6158 59.199 95.6111 60.4449 96.3014C61.689 96.9909 63.127 97.3406 64.719 97.3406C66.577 97.3406 68.1633 96.969 69.4353 96.2365L69.4866 96.207V92.6252L69.3224 92.7451C68.7462 93.1647 68.1024 93.4997 67.4096 93.7411C66.7186 93.9822 66.0885 94.1041 65.5363 94.1041C64.0021 94.1041 62.7707 93.624 61.8767 92.6778C60.9807 91.7301 60.5265 90.3996 60.5265 88.7251C60.5265 87.0401 61.0002 85.6754 61.9339 84.6683C62.8645 83.6642 64.0984 83.1549 65.6007 83.1549C66.8859 83.1549 68.1381 83.5901 69.3228 84.4495L69.4866 84.5685V80.7945L69.4337 80.7647C68.9878 80.5152 68.3799 80.3091 67.6249 80.1528C66.8734 79.9969 66.1383 79.9182 65.4396 79.9182ZM53.78 80.3188H49.8703V96.9392H53.78V80.3188ZM51.865 73.2384C51.2216 73.2384 50.6604 73.4574 50.1993 73.8914C49.7363 74.3268 49.5013 74.8749 49.5013 75.5216C49.5013 76.1583 49.7335 76.6963 50.1919 77.12C50.6474 77.5425 51.2104 77.7567 51.865 77.7567C52.5194 77.7567 53.0846 77.5425 53.5456 77.1207C54.0098 76.6963 54.245 76.1583 54.245 75.5216C54.245 74.8975 54.0161 74.3549 53.5647 73.909C53.114 73.4639 52.542 73.2384 51.865 73.2384ZM42.1102 79.0926V96.9391H46.1002V73.7473H40.578L33.5588 90.9735L26.7471 73.7473H21V96.9391H24.7495V79.0908H24.8784L32.0713 96.9391H34.9009L41.9815 79.0926H42.1102Z" fill="#C6C6C6"/>
<path d="M82.9579 40.1449H64.5659V21.7529H82.9579V40.1449Z" fill="#C6C6C6"/>
<path d="M103.265 40.1449H84.8728V21.7529H103.265V40.1449Z" fill="#C6C6C6"/>
<path d="M82.9575 60.4594H64.5659V42.0674H82.9575V60.4594Z" fill="#C6C6C6"/>
<path d="M103.265 60.4594H84.8728V42.0674H103.265V60.4594Z" fill="#C6C6C6"/>
</svg>
