<svg width="1440" height="300" viewBox="0 0 1440 300" fill="none" xmlns="http://www.w3.org/2000/svg">
<rect width="1440" height="300" fill="#473AD1" fill-opacity="0.06"/>
<path d="M820.048 138.528C820.048 140.186 818.67 141.542 816.985 141.542C815.3 141.542 813.922 140.186 813.922 138.528C813.922 136.871 815.224 135.514 816.985 135.514C818.746 135.552 820.048 136.908 820.048 138.528ZM807.489 144.556C807.489 144.82 807.489 145.31 807.489 145.31C807.489 145.31 806.034 143.464 802.932 143.464C797.84 143.464 793.819 147.306 793.819 152.581C793.819 157.855 797.763 161.698 802.932 161.698C806.072 161.698 807.489 159.814 807.489 159.814V160.605C807.489 160.982 807.757 161.246 808.14 161.246H811.931V143.916C811.931 143.916 808.446 143.916 808.14 143.916C807.757 143.916 807.489 144.255 807.489 144.556ZM807.489 155.67C806.8 156.687 805.383 157.554 803.698 157.554C800.712 157.554 798.414 155.708 798.414 152.581C798.414 149.454 800.712 147.608 803.698 147.608C805.345 147.608 806.838 148.512 807.489 149.491V155.67ZM814.764 143.916H819.282V161.246H814.764V143.916ZM881.963 143.464C878.862 143.464 877.407 145.31 877.407 145.31V135.59H872.889V161.283C872.889 161.283 876.373 161.283 876.679 161.283C877.062 161.283 877.33 160.944 877.33 160.643V159.852C877.33 159.852 878.785 161.735 881.887 161.735C886.979 161.735 891 157.855 891 152.618C891.038 147.344 887.018 143.464 881.963 143.464ZM881.236 157.516C879.513 157.516 878.134 156.649 877.445 155.632V149.454C878.134 148.55 879.666 147.57 881.236 147.57C884.222 147.57 886.52 149.416 886.52 152.543C886.52 155.67 884.222 157.516 881.236 157.516ZM870.591 150.961V161.283H866.073V151.488C866.073 148.625 865.154 147.457 862.588 147.457C861.21 147.457 859.832 148.135 858.951 149.152V161.246H854.433V143.916H857.994C858.377 143.916 858.645 144.255 858.645 144.556V145.31C859.946 143.953 861.708 143.464 863.431 143.464C865.384 143.464 867.03 144.029 868.37 145.121C869.978 146.402 870.591 148.06 870.591 150.961ZM843.52 143.464C840.419 143.464 838.963 145.31 838.963 145.31V135.59H834.445V161.283C834.445 161.283 837.93 161.283 838.236 161.283C838.619 161.283 838.887 160.944 838.887 160.643V159.852C838.887 159.852 840.342 161.735 843.443 161.735C848.536 161.735 852.556 157.855 852.556 152.618C852.633 147.344 848.651 143.464 843.52 143.464ZM842.792 157.516C841.069 157.516 839.691 156.649 839.002 155.632V149.454C839.691 148.55 841.223 147.57 842.792 147.57C845.779 147.57 848.077 149.416 848.077 152.543C848.077 155.67 845.779 157.516 842.792 157.516ZM830.578 143.464C831.956 143.464 832.646 143.69 832.646 143.69V147.796C832.646 147.796 828.893 146.553 826.557 149.19V161.321H822.039V143.916C822.039 143.916 825.524 143.916 825.83 143.916C826.213 143.916 826.481 144.255 826.481 144.556V145.31C827.362 144.33 829.2 143.464 830.578 143.464ZM783.864 159.701C783.634 159.136 783.405 158.533 783.175 158.043C782.792 157.215 782.409 156.423 782.103 155.708L782.064 155.67C778.848 148.738 775.364 141.731 771.688 134.836L771.535 134.572C771.152 133.894 770.769 133.141 770.424 132.387C769.965 131.559 769.505 130.692 768.739 129.863C767.246 128.017 765.102 127 762.804 127C760.469 127 758.363 128.017 756.793 129.75C756.104 130.579 755.568 131.446 755.108 132.274C754.725 133.028 754.342 133.744 753.998 134.459L753.845 134.723C750.245 141.655 746.723 148.663 743.468 155.557L743.43 155.632C743.085 156.386 742.74 157.139 742.358 157.968C742.128 158.458 741.898 159.023 741.668 159.626C741.056 161.321 740.864 162.941 741.094 164.599C741.592 168.065 743.966 170.966 747.182 172.247C748.407 172.736 749.671 173 750.973 173C751.356 173 751.815 172.962 752.198 172.925C753.73 172.736 755.338 172.247 756.87 171.342C758.784 170.287 760.622 168.743 762.69 166.558C764.757 168.781 766.633 170.287 768.51 171.342C770.041 172.209 771.649 172.736 773.181 172.925C773.564 172.962 774.023 173 774.406 173C775.708 173 777.048 172.774 778.197 172.247C781.49 170.966 783.787 167.989 784.285 164.599C784.668 163.016 784.477 161.396 783.864 159.701ZM762.728 162.075C760.201 158.948 758.554 155.971 757.98 153.485C757.75 152.43 757.712 151.488 757.827 150.659C757.903 149.906 758.21 149.265 758.593 148.738C759.473 147.495 760.967 146.704 762.728 146.704C764.489 146.704 766.021 147.457 766.863 148.738C767.246 149.303 767.514 149.943 767.629 150.659C767.782 151.488 767.706 152.468 767.476 153.485C766.902 155.971 765.255 158.91 762.728 162.075ZM781.413 164.26C781.069 166.671 779.461 168.743 777.163 169.647C776.053 170.099 774.828 170.25 773.602 170.099C772.415 169.948 771.267 169.609 770.041 168.894C768.357 167.989 766.672 166.558 764.681 164.41C767.782 160.681 769.658 157.252 770.348 154.201C770.692 152.769 770.731 151.488 770.577 150.283C770.386 149.115 769.965 148.06 769.314 147.156C767.859 145.084 765.408 143.878 762.69 143.878C759.971 143.878 757.52 145.121 756.065 147.156C755.414 148.06 754.993 149.152 754.802 150.283C754.61 151.488 754.649 152.807 755.032 154.201C755.721 157.252 757.674 160.718 760.699 164.448C758.784 166.558 757.061 167.989 755.338 168.931C754.113 169.609 752.964 169.986 751.777 170.137C750.513 170.287 749.288 170.099 748.216 169.685C745.919 168.781 744.272 166.671 743.966 164.297C743.813 163.129 743.927 161.999 744.387 160.718C744.54 160.266 744.77 159.814 745 159.249C745.344 158.495 745.689 157.742 746.072 156.951L746.11 156.876C749.326 150.019 752.811 142.974 756.41 136.155L756.563 135.891C756.946 135.213 757.329 134.459 757.674 133.781C758.056 133.028 758.478 132.35 758.975 131.747C759.971 130.654 761.273 130.052 762.728 130.052C764.183 130.052 765.485 130.654 766.48 131.747C766.978 132.35 767.399 133.028 767.782 133.781C768.165 134.459 768.548 135.213 768.893 135.891L769.046 136.155C772.607 143.011 776.091 150.057 779.308 156.913V156.951C779.69 157.704 779.997 158.533 780.38 159.249C780.609 159.814 780.839 160.266 780.992 160.718C781.452 161.886 781.605 163.054 781.413 164.26Z" fill="#C6C6C6"/>
<path d="M962.825 162.266C956.314 162.266 951.037 156.986 951.037 150.474C951.037 143.962 956.314 138.687 962.825 138.687C965.12 138.687 967.262 139.342 969.072 140.476L962.825 150.474L974.586 143.683C973.308 141.647 971.476 139.893 969.259 138.561C966.439 136.873 962.517 135.828 958.179 135.828C951.991 135.828 946.563 138.077 943.535 141.444C941.294 143.933 939.959 147.066 939.959 150.474C939.959 153.885 941.294 157.02 943.535 159.511C946.57 162.882 951.918 165.118 958.004 165.118C964.088 165.118 969.435 162.88 972.472 159.511C972.638 159.325 972.799 159.138 972.951 158.944L972.493 157.225C970.359 160.27 966.824 162.266 962.825 162.266Z" fill="#C6C6C6"/>
<path d="M1001.82 164.409L996.883 145.993C996.09 143.017 993.38 140.83 990.154 140.83C989.317 140.83 988.515 140.98 987.771 141.25L977.144 145.115H988.074L989.942 152.09C988.13 150.531 985.77 149.582 983.187 149.582C978.056 149.582 973.902 153.02 973.902 157.261C973.902 161.503 978.056 164.946 983.187 164.946C986.88 164.946 990.147 163.138 992.161 160.36L993.245 164.409H1001.82ZM986.761 161.548C984.394 161.548 982.476 159.631 982.476 157.261C982.476 154.895 984.394 152.976 986.761 152.976C989.128 152.976 991.048 154.895 991.048 157.261C991.048 159.631 989.128 161.548 986.761 161.548Z" fill="#C6C6C6"/>
<path d="M1021.95 140.833C1021.3 140.833 1020.69 140.976 1020.14 141.233L1013.32 144.413C1012.98 142.381 1011.21 140.833 1009.09 140.833C1008.44 140.833 1007.83 140.976 1007.27 141.233L998.943 145.114H1004.8V164.408H1013.37V147.261C1013.37 146.078 1014.33 145.115 1015.52 145.115C1016.7 145.115 1017.66 146.078 1017.66 147.261V164.408H1026.23V145.114C1026.23 142.748 1024.31 140.833 1021.95 140.833" fill="#C6C6C6"/>
<path d="M1075.71 140.833C1075.07 140.833 1074.45 140.976 1073.89 141.233L1067.08 144.413C1066.74 142.381 1064.98 140.833 1062.85 140.833C1062.2 140.833 1061.59 140.976 1061.03 141.233L1052.71 145.114H1058.56V164.408H1067.14V147.261C1067.14 146.078 1068.09 145.115 1069.28 145.115C1070.46 145.115 1071.42 146.078 1071.42 147.261V164.408H1080V145.114C1080 142.748 1078.08 140.833 1075.71 140.833" fill="#C6C6C6"/>
<path d="M1054.09 152.976C1054.09 159.682 1048.66 165.117 1041.95 165.117C1035.24 165.117 1029.81 159.682 1029.81 152.976C1029.81 146.271 1035.24 140.833 1041.95 140.833C1048.66 140.833 1054.09 146.271 1054.09 152.976ZM1042.46 144.518C1042.08 143.089 1040.61 142.241 1039.18 142.625C1037.75 143.008 1036.9 144.477 1037.28 145.906L1041.45 161.432C1041.83 162.863 1043.3 163.71 1044.73 163.332C1046.15 162.945 1047 161.476 1046.62 160.048L1042.46 144.518Z" fill="#C6C6C6"/>
<path d="M1201.78 106.291H1204.5C1217.72 107.037 1227.16 112.057 1234.15 119.092C1241.14 126.128 1246.31 135.408 1247 148.685V151.315C1246.33 164.804 1241.07 173.707 1234.15 180.951C1226.88 187.832 1217.94 193.045 1204.45 193.708H1201.78C1188.55 192.961 1179.12 187.943 1172.12 180.907C1165.13 173.871 1159.96 164.592 1159.27 151.315V148.685C1159.31 148.675 1159.32 148.648 1159.31 148.597C1159.98 135.37 1165.17 125.995 1172.12 119.049C1179.11 112.07 1188.63 107.014 1201.78 106.291ZM1193.18 112.56C1190.57 113.258 1188.23 114.143 1186.12 115.191C1179.67 118.377 1174.35 122.937 1170.63 128.781C1167 134.485 1163.86 141.824 1164.32 151.446C1164.6 157.513 1165.99 162.616 1168.18 166.966C1172.5 175.555 1179.07 181.883 1188.18 185.73C1192.68 187.632 1198.26 188.966 1204.54 188.667C1210.56 188.38 1215.79 187.026 1220.11 184.853C1228.59 180.592 1235.27 174.019 1238.97 164.949C1240.85 160.361 1242.26 155.061 1241.96 148.641C1241.38 136.478 1236.43 128.231 1229.89 121.942C1226.66 118.83 1222.77 116.183 1218.18 114.27C1213.73 112.414 1207.94 111.037 1201.73 111.333C1198.68 111.478 1195.8 111.857 1193.18 112.56Z" fill="#C6C6C6"/>
<path d="M1199.1 138.645C1200.49 139.565 1201.91 140.453 1203.22 141.451C1200.26 143.311 1197.35 145.229 1194.41 147.106C1194.85 147.448 1195.36 147.729 1195.81 148.071C1198.78 146.189 1201.75 144.309 1204.71 142.415C1206.04 143.237 1207.35 144.078 1208.58 145.002C1205.61 146.874 1202.74 148.846 1199.8 150.745C1200.24 151.099 1200.77 151.354 1201.25 151.666C1204.29 149.807 1207.25 147.872 1210.24 145.966V139.741H1216.82V152.148C1218.68 152.25 1220.73 152.162 1222.66 152.191V158.022H1210.24V152.104C1206.59 154.318 1202.86 156.823 1199.19 159.162C1195.37 156.683 1191.68 154.064 1187.87 151.578C1186.77 155.078 1184.14 157.711 1179.8 158.022C1177.09 158.216 1174.01 157.878 1170.89 158.022V139.741C1174.79 139.999 1179.08 139.22 1182.17 140.179C1184.9 141.028 1186.84 143.208 1187.74 145.922C1191.56 143.527 1195.31 141.07 1199.1 138.645ZM1177.17 145.616V152.192C1178.73 152.199 1179.93 152.29 1180.85 151.578C1182.23 150.518 1182.51 147.892 1181.29 146.492C1180.48 145.559 1179.11 145.363 1177.21 145.484C1177.16 145.491 1177.16 145.553 1177.17 145.616ZM1224.37 139.741H1230.95V152.192H1236.74V158.023H1224.32V139.873C1224.32 139.81 1224.31 139.748 1224.37 139.741Z" fill="#C6C6C6"/>
<path d="M430.972 117.563L419.339 125.08L430.972 132.597L419.339 140.114L407.705 132.534L419.339 125.017L407.705 117.563L419.339 110.046L430.972 117.563ZM419.277 142.494L430.91 134.977L442.543 142.494L430.91 150.011L419.277 142.494ZM430.972 132.534L442.605 125.017L430.972 117.563L442.543 110.046L454.176 117.563L442.543 125.08L454.176 132.597L442.543 140.114L430.972 132.534Z" fill="#C6C6C6"/>
<path d="M364.975 161.731H373.479C378.906 161.731 383.381 164.864 383.381 172.025V173.535C383.381 180.752 379.185 183.997 373.647 183.997H364.975V161.731ZM369.73 165.759V179.913H373.367C376.444 179.913 378.514 177.899 378.514 173.423V172.248C378.514 167.773 376.332 165.759 373.199 165.759H369.73ZM385.899 165.983H389.703L390.319 170.178C391.046 167.325 392.892 165.815 396.249 165.815H397.424V170.626H395.466C391.605 170.626 390.654 171.969 390.654 175.773V184.053H385.955V165.983H385.899ZM398.375 175.381V174.878C398.375 168.836 402.235 165.535 407.494 165.535C412.865 165.535 416.613 168.836 416.613 174.878V175.381C416.613 181.312 412.977 184.501 407.494 184.501C401.675 184.445 398.375 181.312 398.375 175.381ZM411.802 175.326V174.878C411.802 171.521 410.123 169.507 407.438 169.507C404.808 169.507 403.074 171.353 403.074 174.878V175.326C403.074 178.57 404.753 180.417 407.438 180.417C410.123 180.361 411.802 178.57 411.802 175.326ZM419.075 165.983H422.991L423.438 169.395C424.389 167.101 426.404 165.535 429.369 165.535C433.956 165.535 436.977 168.836 436.977 174.934V175.437C436.977 181.368 433.621 184.501 429.369 184.501C426.515 184.501 424.557 183.214 423.606 181.144V190.263H419.019L419.075 165.983ZM432.222 175.326V174.934C432.222 171.353 430.376 169.563 427.914 169.563C425.285 169.563 423.55 171.577 423.55 174.934V175.27C423.55 178.458 425.229 180.473 427.858 180.473C430.543 180.417 432.222 178.682 432.222 175.326ZM443.915 180.696L443.523 183.997H439.495V159.94H444.082V169.171C445.089 166.822 447.103 165.535 449.957 165.535C454.264 165.591 457.453 168.556 457.453 174.542V175.102C457.453 181.088 454.432 184.501 449.845 184.501C446.824 184.445 444.866 183.046 443.915 180.696ZM452.642 175.102V174.654C452.642 171.353 450.852 169.507 448.334 169.507C445.761 169.507 443.97 171.577 443.97 174.71V175.102C443.97 178.458 445.705 180.417 448.278 180.417C451.02 180.417 452.642 178.682 452.642 175.102ZM459.467 175.381V174.878C459.467 168.836 463.328 165.535 468.587 165.535C473.957 165.535 477.706 168.836 477.706 174.878V175.381C477.706 181.312 474.013 184.501 468.587 184.501C462.768 184.445 459.467 181.312 459.467 175.381ZM472.95 175.326V174.878C472.95 171.521 471.272 169.507 468.587 169.507C465.957 169.507 464.223 171.353 464.223 174.878V175.326C464.223 178.57 465.901 180.417 468.587 180.417C471.272 180.361 472.95 178.57 472.95 175.326ZM483.86 174.654L477.538 165.983H482.965L486.601 171.409L490.294 165.983H495.664L489.231 174.598L496 183.997H490.685L486.545 178.011L482.517 183.997H476.978L483.86 174.654Z" fill="#C6C6C6"/>
<path d="M643.485 118.041C647.214 116.21 649.061 116.45 649.103 118.307C649.153 120.718 648.796 123.925 648.539 126.245C647.156 138.857 644.844 149.162 644.67 162.111C650.76 146.343 655.865 135.384 662.444 121.886C664.533 117.586 665.867 118.389 667.582 117.627C674.261 114.652 674.51 116.475 673.64 120.113C670.4 133.587 662.104 176.011 660.837 182.544C660.472 184.434 658.417 183.633 657.887 182.894C655.509 179.604 652.824 179.552 653.122 177.365C654.614 166.473 659.983 139.147 661.384 132.709C654.249 147.336 646.849 165.622 643.045 175.991C642.241 178.192 640.775 178.031 639.863 176.42C638.579 174.157 636.085 173.002 635.67 170.328C634.369 161.826 637.162 145.62 637.551 135.368C633.665 146.567 627.143 168.311 624.284 178.134C623.108 182.199 619.18 181.536 620.224 177.574C624.566 161.088 633.922 131.93 637.966 121.447C638.919 118.978 641.413 119.06 643.485 118.041Z" fill="#C6C6C6"/>
<path d="M619.802 116.02C618.542 115.713 614.888 117.685 612.642 118.075C611.929 118.199 611.25 118.953 611.01 119.492C607.413 127.753 604.19 135.629 601.397 142.804C597.825 143.413 593.649 144.216 588.975 145.266C592.323 136.679 595.704 128.209 599.002 120.063C600.626 116.053 596.351 115.671 594.693 119.732C592.539 125.011 588.503 134.901 584.036 146.428C580.755 147.233 577.275 148.153 573.637 149.203C570.993 149.967 570.886 150.671 572.029 152.256C572.659 153.139 573.96 153.05 574.556 153.679C576.098 155.309 577.034 157.259 579.793 157.554C577.332 164.137 574.871 170.927 572.642 177.464C571.242 181.568 575.228 182.407 576.761 178.065C579.23 171.065 581.832 163.981 584.509 156.917C586.738 156.399 592.132 155.237 597.113 154.157C593.16 164.991 590.558 173.219 589.572 177.224C589.39 177.994 589.696 178.422 589.862 178.736C591.196 180.677 592.464 180.757 594.179 183.158C594.643 183.812 596.201 184.165 596.731 182.553C600.394 171.49 604.165 161.109 607.678 151.803C609.136 151.484 611.763 150.85 613.371 148.451C616.23 144.194 617.05 145.057 617.738 143.763C618.6 142.138 618.028 140.612 614.979 140.989C614.979 140.989 613.827 141.071 611.697 141.314C615.078 132.609 618.036 125.225 620.166 119.599C620.896 117.693 620.987 116.301 619.802 116.02Z" fill="#C6C6C6"/>
<path d="M614.813 172.48C615.601 174.47 618.062 173.867 617.125 171.466C616.172 169.02 613.802 161.655 613.181 159.283C612.336 156.086 615.998 156.96 614.142 159.05C612.551 160.847 611.49 161.568 608.549 164.985C605.706 168.284 606.477 172.565 609.518 173.51C612.949 174.578 615.973 170.797 617.846 168.024C619.661 165.338 617.904 163.763 616.073 165.351C614.896 166.371 613.537 167.939 612.161 168.785C611.043 169.465 610.164 168.734 611.656 166.681C613.388 164.303 615.327 162.311 616.769 160.065C619.711 155.486 613.893 152.847 611.391 155.821C610.048 157.406 610.388 158.963 610.753 160.298C611.341 162.438 613.529 169.268 614.813 172.48Z" fill="#C6C6C6"/>
<path d="M302 173.507V170.319H298.04V165.362L297.907 165.403L294.188 166.541L294.115 166.563V170.319H288.245V168.227C288.245 167.252 288.463 166.507 288.892 166.01C289.319 165.518 289.929 165.269 290.706 165.269C291.265 165.269 291.844 165.4 292.427 165.66L292.573 165.725V162.367L292.504 162.342C291.961 162.147 291.221 162.048 290.305 162.048C289.15 162.048 288.101 162.3 287.186 162.798C286.27 163.296 285.55 164.008 285.045 164.914C284.542 165.818 284.287 166.863 284.287 168.018V170.319H281.53V173.507H284.287V186.94H288.245V173.507H294.115V182.043C294.115 185.559 295.773 187.341 299.043 187.341C299.581 187.341 300.146 187.277 300.724 187.154C301.312 187.028 301.712 186.901 301.948 186.766L302 186.735V183.517L301.839 183.624C301.624 183.767 301.357 183.884 301.043 183.971C300.728 184.059 300.465 184.104 300.261 184.104C299.495 184.104 298.928 183.897 298.577 183.49C298.221 183.079 298.04 182.36 298.04 181.354V173.507H302ZM272.691 184.104C271.255 184.104 270.122 183.628 269.324 182.69C268.521 181.746 268.114 180.402 268.114 178.694C268.114 176.931 268.521 175.552 269.324 174.592C270.123 173.639 271.245 173.155 272.659 173.155C274.032 173.155 275.124 173.617 275.906 174.529C276.693 175.446 277.092 176.814 277.092 178.597C277.092 180.402 276.717 181.789 275.977 182.716C275.242 183.637 274.137 184.104 272.691 184.104ZM272.868 169.918C270.127 169.918 267.95 170.721 266.398 172.305C264.847 173.889 264.06 176.082 264.06 178.821C264.06 181.424 264.828 183.517 266.342 185.042C267.857 186.567 269.917 187.34 272.467 187.34C275.124 187.34 277.257 186.526 278.809 184.92C280.36 183.316 281.146 181.145 281.146 178.469C281.146 175.826 280.408 173.717 278.953 172.202C277.497 170.686 275.449 169.918 272.868 169.918ZM257.679 169.918C255.815 169.918 254.273 170.395 253.094 171.335C251.909 172.281 251.308 173.522 251.308 175.023C251.308 175.803 251.438 176.496 251.693 177.084C251.95 177.674 252.348 178.193 252.876 178.629C253.4 179.061 254.209 179.514 255.282 179.975C256.183 180.346 256.855 180.66 257.283 180.907C257.7 181.149 257.996 181.393 258.164 181.63C258.326 181.862 258.409 182.18 258.409 182.572C258.409 183.689 257.573 184.232 255.852 184.232C255.214 184.232 254.486 184.099 253.688 183.836C252.89 183.574 252.144 183.196 251.472 182.713L251.308 182.595V186.405L251.368 186.433C251.929 186.692 252.634 186.91 253.467 187.081C254.297 187.253 255.052 187.341 255.708 187.341C257.731 187.341 259.36 186.861 260.548 185.916C261.745 184.963 262.351 183.693 262.351 182.14C262.351 181.02 262.025 180.059 261.381 179.284C260.742 178.516 259.634 177.81 258.087 177.187C256.854 176.692 256.065 176.281 255.739 175.966C255.425 175.662 255.266 175.231 255.266 174.686C255.266 174.203 255.463 173.815 255.867 173.502C256.274 173.186 256.84 173.026 257.551 173.026C258.211 173.026 258.885 173.13 259.556 173.334C260.227 173.539 260.816 173.812 261.307 174.146L261.469 174.257V170.642L261.407 170.616C260.953 170.421 260.355 170.255 259.629 170.12C258.905 169.986 258.249 169.918 257.679 169.918ZM240.99 184.104C239.554 184.104 238.421 183.628 237.623 182.69C236.819 181.746 236.413 180.402 236.413 178.694C236.413 176.931 236.82 175.552 237.624 174.592C238.422 173.639 239.543 173.155 240.958 173.155C242.33 173.155 243.422 173.617 244.205 174.529C244.992 175.446 245.391 176.814 245.391 178.597C245.391 180.402 245.015 181.789 244.275 182.716C243.54 183.637 242.435 184.104 240.99 184.104ZM241.167 169.918C238.425 169.918 236.248 170.721 234.697 172.305C233.146 173.889 232.359 176.082 232.359 178.821C232.359 181.425 233.127 183.517 234.641 185.042C236.155 186.567 238.216 187.34 240.766 187.34C243.422 187.34 245.556 186.526 247.107 184.92C248.658 183.316 249.445 181.145 249.445 178.469C249.445 175.826 248.707 173.717 247.251 172.202C245.795 170.686 243.748 169.918 241.167 169.918ZM226.351 173.197V170.319H222.441V186.939H226.351V178.437C226.351 176.991 226.679 175.804 227.325 174.907C227.964 174.02 228.815 173.571 229.854 173.571C230.206 173.571 230.601 173.629 231.029 173.744C231.453 173.858 231.76 173.982 231.941 174.113L232.105 174.232V170.29L232.042 170.263C231.678 170.108 231.163 170.03 230.511 170.03C229.529 170.03 228.649 170.346 227.896 170.967C227.235 171.514 226.757 172.263 226.392 173.197H226.351ZM215.44 169.918C213.646 169.918 212.046 170.303 210.685 171.061C209.322 171.821 208.267 172.906 207.55 174.285C206.835 175.662 206.473 177.269 206.473 179.062C206.473 180.632 206.824 182.074 207.519 183.344C208.215 184.616 209.199 185.611 210.445 186.301C211.689 186.991 213.127 187.341 214.719 187.341C216.577 187.341 218.163 186.969 219.435 186.237L219.487 186.207V182.625L219.322 182.745C218.746 183.165 218.102 183.5 217.41 183.741C216.719 183.982 216.089 184.104 215.536 184.104C214.002 184.104 212.771 183.624 211.877 182.678C210.981 181.73 210.526 180.4 210.526 178.725C210.526 177.04 211 175.675 211.934 174.668C212.865 173.664 214.098 173.155 215.601 173.155C216.886 173.155 218.138 173.59 219.323 174.449L219.487 174.569V170.794L219.434 170.765C218.988 170.515 218.38 170.309 217.625 170.153C216.873 169.997 216.138 169.918 215.44 169.918ZM203.78 170.319H199.87V186.939H203.78V170.319ZM201.865 163.238C201.222 163.238 200.66 163.457 200.199 163.891C199.736 164.327 199.501 164.875 199.501 165.522C199.501 166.158 199.733 166.696 200.192 167.12C200.647 167.542 201.21 167.757 201.865 167.757C202.519 167.757 203.085 167.542 203.546 167.121C204.01 166.696 204.245 166.158 204.245 165.522C204.245 164.897 204.016 164.355 203.565 163.909C203.114 163.464 202.542 163.238 201.865 163.238ZM192.11 169.093V186.939H196.1V163.747H190.578L183.559 180.973L176.747 163.747H171V186.939H174.749V169.091H174.878L182.071 186.939H184.901L191.982 169.093H192.11Z" fill="#C6C6C6"/>
<path d="M232.958 130.145H214.566V111.753H232.958V130.145Z" fill="#C6C6C6"/>
<path d="M253.265 130.145H234.873V111.753H253.265V130.145Z" fill="#C6C6C6"/>
<path d="M232.957 150.459H214.566V132.067H232.957V150.459Z" fill="#C6C6C6"/>
<path d="M253.265 150.459H234.873V132.067H253.265V150.459Z" fill="#C6C6C6"/>
</svg>
